<svg width="18" height="14" viewBox="0 0 18 14" fill="none" xmlns="http://www.w3.org/2000/svg">
<path fill-rule="evenodd" clip-rule="evenodd" d="M4.033 3.62259C2.73884 4.71669 2.0415 6.04626 2.0415 7.11651C2.0415 8.38295 3.02688 10.0122 4.76065 11.1474C5.1072 11.3742 5.2042 11.8391 4.97732 12.1857C4.75043 12.5322 4.28557 12.6292 3.93902 12.4023C1.95613 11.1041 0.541504 9.06673 0.541504 7.11651C0.541504 5.45342 1.56917 3.74133 3.06459 2.47709C4.57959 1.19629 6.67449 0.283173 8.99984 0.283173C10.902 0.283173 12.6618 0.892506 14.0742 1.83413C14.4188 2.0639 14.512 2.52955 14.2822 2.8742C14.0524 3.21884 13.5868 3.31197 13.2421 3.08221C12.0546 2.29051 10.581 1.78317 8.99984 1.78317C7.06685 1.78317 5.30758 2.54505 4.033 3.62259Z" fill="#727272"/>
<path fill-rule="evenodd" clip-rule="evenodd" d="M15.0768 3.58623C15.402 3.32976 15.8736 3.38553 16.1301 3.71079C16.942 4.74049 17.4661 5.94118 17.4661 7.11684C17.4661 8.78058 16.4357 10.4927 14.9385 11.7566C13.4215 13.0371 11.3247 13.9502 8.99947 13.9502C8.1702 13.9502 7.36211 13.8318 6.60775 13.623C6.20854 13.5125 5.97449 13.0993 6.08498 12.7001C6.19547 12.3009 6.60866 12.0669 7.00787 12.1773C7.6385 12.3519 8.31208 12.4502 8.99947 12.4502C10.9326 12.4502 12.6941 11.6882 13.9709 10.6104C15.2674 9.51595 15.9661 8.18643 15.9661 7.11684C15.9661 6.37583 15.6253 5.49318 14.9522 4.63955C14.6957 4.31429 14.7515 3.8427 15.0768 3.58623Z" fill="#727272"/>
<path fill-rule="evenodd" clip-rule="evenodd" d="M10.3319 5.77784C9.97785 5.42381 9.49763 5.22548 8.99732 5.22667L8.99683 5.22668C7.95615 5.22846 7.11482 6.07356 7.1172 7.11329L7.1172 7.1177C7.11542 7.6142 7.31292 8.0903 7.66567 8.4395C7.96005 8.7309 7.96245 9.20577 7.67105 9.50015C7.37964 9.79452 6.90478 9.79693 6.6104 9.50552C5.97201 8.87357 5.61457 8.01223 5.6172 7.11453C5.61411 5.2471 7.12539 3.73016 8.99375 3.72668M8.99425 3.72668C9.89377 3.72467 10.7567 4.08133 11.3925 4.71718C11.6854 5.01007 11.6854 5.48495 11.3925 5.77784C11.0996 6.07073 10.6248 6.07073 10.3319 5.77784" fill="#727272"/>
<path fill-rule="evenodd" clip-rule="evenodd" d="M11.7245 6.84459C12.1321 6.91841 12.4027 7.30867 12.3289 7.71625C12.0782 9.10022 10.9955 10.1848 9.61201 10.4386C9.2046 10.5133 8.81374 10.2437 8.739 9.83624C8.66427 9.42883 8.93396 9.03797 9.34137 8.96323C10.1112 8.82202 10.7135 8.21829 10.8529 7.44893C10.9267 7.04134 11.3169 6.77078 11.7245 6.84459Z" fill="#727272"/>
</svg>
